<?xml version="1.0" encoding="UTF-8"?><svg id="Cocola_Landscape" xmlns="http://www.w3.org/2000/svg" viewBox="0 0 651.27 229.65"><defs><style>.cls-1{fill:#f6f099;}.cls-2{fill:#66933e;}.cls-3{fill:#e9e77a;}.cls-4{fill:#e9ba75;}.cls-5{fill:#98be60;}.cls-6{fill:#99903c;}.cls-7{fill:#cdc765;}.cls-8{fill:#d88d2c;}.cls-9{fill:#d9888f;}.cls-10{fill:#e2a343;}.cls-11{fill:#e1de73;}.cls-12{fill:#c94043;}.cls-13{fill:#968a40;}.cls-14{fill:#77ae45;}.cls-15{fill:#2c2d5a;stroke-width:.97px;}.cls-15,.cls-16{stroke:#fff;stroke-miterlimit:10;}.cls-16{fill:none;stroke-width:10.95px;}</style></defs><g><path class="cls-16" d="M274.1,112.7h-23.09v-21.72c0-5.05-2.97-7.58-8.9-7.58s-9.24,2.53-9.24,7.58v82.6c0,4.75,3.08,7.12,9.24,7.12s8.9-2.37,8.9-7.12v-29.48h23.09v29.48c0,15.64-10.66,23.46-31.99,23.46s-32.33-7.82-32.33-23.46V90.98c0-16.55,10.78-24.83,32.33-24.83s31.99,8.28,31.99,24.83v21.72Z"/><path class="cls-16" d="M283.11,173.76V90.98c0-16.55,10.44-24.83,31.32-24.83s30.87,8.28,30.87,24.83v82.78c0,15.52-10.33,23.27-30.98,23.27s-31.2-7.76-31.2-23.27Zm40.55,2.01V89.7c0-4.2-2.97-6.3-8.9-6.3s-9.24,2.1-9.24,6.3v85.89c0,4.14,3.08,6.21,9.24,6.21s8.9-2.01,8.9-6.02Z"/><path class="cls-16" d="M418.63,112.7h-23.09v-21.72c0-5.05-2.97-7.58-8.9-7.58s-9.24,2.53-9.24,7.58v82.6c0,4.75,3.08,7.12,9.24,7.12s8.9-2.37,8.9-7.12v-29.48h23.09v29.48c0,15.64-10.66,23.46-31.99,23.46s-32.33-7.82-32.33-23.46V90.98c0-16.55,10.78-24.83,32.33-24.83s31.99,8.28,31.99,24.83v21.72Z"/><path class="cls-16" d="M427.64,173.76V90.98c0-16.55,10.44-24.83,31.32-24.83s30.87,8.28,30.87,24.83v82.78c0,15.52-10.33,23.27-30.98,23.27s-31.2-7.76-31.2-23.27Zm40.55,2.01V89.7c0-4.2-2.97-6.3-8.9-6.3s-9.24,2.1-9.24,6.3v85.89c0,4.14,3.08,6.21,9.24,6.21s8.9-2.01,8.9-6.02Z"/><path class="cls-16" d="M554.15,197.03h-55.31V66.15h23.09v114.09h32.22v16.79Z"/><path class="cls-16" d="M627.48,197.03h-23.88v-49.01h-17.01v49.01h-23.43V86.96c0-13.14,10.89-20.08,32.67-20.81,21.1,.73,31.65,7.67,31.65,20.81v110.07Zm-23.88-65.53v-43.26c-1.65-3.22-4.49-4.84-8.5-4.84s-6.85,1.61-8.51,4.84v43.26h17.01Z"/></g><g><path class="cls-15" d="M274.1,112.7h-23.09v-21.72c0-5.05-2.97-7.58-8.9-7.58s-9.24,2.53-9.24,7.58v82.6c0,4.75,3.08,7.12,9.24,7.12s8.9-2.37,8.9-7.12v-29.48h23.09v29.48c0,15.64-10.66,23.46-31.99,23.46s-32.33-7.82-32.33-23.46V90.98c0-16.55,10.78-24.83,32.33-24.83s31.99,8.28,31.99,24.83v21.72Z"/><path class="cls-15" d="M283.11,173.76V90.98c0-16.55,10.44-24.83,31.32-24.83s30.87,8.28,30.87,24.83v82.78c0,15.52-10.33,23.27-30.98,23.27s-31.2-7.76-31.2-23.27Zm40.55,2.01V89.7c0-4.2-2.97-6.3-8.9-6.3s-9.24,2.1-9.24,6.3v85.89c0,4.14,3.08,6.21,9.24,6.21s8.9-2.01,8.9-6.02Z"/><path class="cls-15" d="M418.63,112.7h-23.09v-21.72c0-5.05-2.97-7.58-8.9-7.58s-9.24,2.53-9.24,7.58v82.6c0,4.75,3.08,7.12,9.24,7.12s8.9-2.37,8.9-7.12v-29.48h23.09v29.48c0,15.64-10.66,23.46-31.99,23.46s-32.33-7.82-32.33-23.46V90.98c0-16.55,10.78-24.83,32.33-24.83s31.99,8.28,31.99,24.83v21.72Z"/><path class="cls-15" d="M427.64,173.76V90.98c0-16.55,10.44-24.83,31.32-24.83s30.87,8.28,30.87,24.83v82.78c0,15.52-10.33,23.27-30.98,23.27s-31.2-7.76-31.2-23.27Zm40.55,2.01V89.7c0-4.2-2.97-6.3-8.9-6.3s-9.24,2.1-9.24,6.3v85.89c0,4.14,3.08,6.21,9.24,6.21s8.9-2.01,8.9-6.02Z"/><path class="cls-15" d="M554.15,197.03h-55.31V66.15h23.09v114.09h32.22v16.79Z"/><path class="cls-15" d="M627.48,197.03h-23.88v-49.01h-17.01v49.01h-23.43V86.96c0-13.14,10.89-20.08,32.67-20.81,21.1,.73,31.65,7.67,31.65,20.81v110.07Zm-23.88-65.53v-43.26c-1.65-3.22-4.49-4.84-8.5-4.84s-6.85,1.61-8.51,4.84v43.26h17.01Z"/></g><g><path class="cls-14" d="M107.16,96.84c-28.2,0-53.33-6.33-69.58-16.21-8.11,12.76-12.81,27.9-12.81,44.14,0,40.16,28.35,70.99,66.38,76.72,5.06,.76,13.87-6.48,19.21-6.48,9.73,0,11.53,8.59,20.19,6.11,31.86-9.12,58.99-40.57,58.99-76.35,0-16.24-4.7-31.38-12.81-44.14-16.25,9.87-41.37,16.21-69.58,16.21Z"/><path class="cls-5" d="M24.78,124.77c0,15.2,4.06,29.06,11.17,40.73-1.88-19.02-2.45-58.32,21.86-75.1l-.52-.94c-7.46-2.45-14.11-5.43-19.71-8.83-8.11,12.76-12.81,27.9-12.81,44.14Z"/><path class="cls-2" d="M176.74,80.63c-8.96,5.44-20.62,9.81-34.01,12.64,40.96,38.26,1.53,97.94-13.29,86.45-14.98-11.61-19.1,2.62-33.33,10.86-8.35,4.84-23.93,5.68-45.9-8.01,11.1,9.86,25.19,16.55,40.94,18.92,5.06,.76,13.87-6.48,19.21-6.48,9.73,0,11.53,8.59,20.19,6.11,31.86-9.12,58.99-40.57,58.99-76.35,0-16.24-4.7-31.38-12.81-44.14Z"/><path class="cls-7" d="M74.02,55.01s11.19,2.73,19.61,0c0,0,13.48,4.7,23.03,0,0,0,16.67,4.23,23.64,2.43,0,0,4.76,10.52-5.23,14.05-9.99,3.53-37.34,4.05-47.11,1.12-9.78-2.93-14.46-10.67-13.94-17.61Z"/><path class="cls-6" d="M132.79,67.84c0,3.62-11.88,6.56-26.54,6.56s-26.54-2.94-26.54-6.56,11.88-6.56,26.54-6.56,26.54,2.94,26.54,6.56Z"/><g><path class="cls-13" d="M89.84,82.95c.32,1.09,.1,2.12-.48,2.29h0c-.59,.17-1.32-.57-1.64-1.67l-18.49-63.26c-.32-1.09-.1-2.12,.48-2.29h0c.59-.17,1.32,.57,1.64,1.67l18.49,63.26Z"/><path class="cls-10" d="M67,15.1c-12.39,3.94-37.03,36.53-37.03,36.53,14.92-7.1,31.18-4.19,31.18-4.19,14.45-10.45,34.72-10.59,34.72-10.59,8.49-9.83,25.59-12.82,25.59-12.82,0,0-41.31-13.11-54.45-8.93Z"/><path class="cls-4" d="M67,15.1s-8.61,0-37.03,36.53c0,0,10.25-5.95,31.18-4.19,0,0-1.73-11.4,5.86-32.34Z"/><path class="cls-8" d="M121.45,24.03s-15.36,2.62-25.59,12.82c0,0-9.3-19.44-28.86-21.75,0,0,8.71-5.22,54.45,8.93Z"/></g><path class="cls-12" d="M191.99,56.92l-40.42-29.39-2.05-1.49c-.06-.04-.12-.08-.19-.12-.95-.55-2.19-.31-2.85,.6l-1.49,2.05-29.39,40.42c-.71,.97-.49,2.33,.48,3.04l2.05,1.49c.97,.71,2.33,.49,3.03-.48l28.11-38.66,38.66,28.11c.97,.71,2.33,.49,3.04-.48l1.49-2.05c.71-.97,.49-2.33-.48-3.04Z"/><path class="cls-1" d="M37.59,80.63s-5.1,26.49,38.12,15.24l16.23-30.77s-9.67-.72-17.91-10.09l-36.43,25.62Z"/><path class="cls-11" d="M75.7,95.87s19.29,18.55,47,2.79l-11.17-32.78s-10.59,1.45-19.6-.77l-16.23,30.77Z"/><path class="cls-3" d="M122.7,98.65s25.03-.4,31.33-8.26l-26.77-26.68s-9.47,4.3-15.73,2.16l11.17,32.78Z"/><path class="cls-7" d="M176.74,80.63s-8.41,9.53-22.7,9.77l-26.77-26.68s6.87,2.16,13.04-6.26l36.43,23.18Z"/><path class="cls-9" d="M149.33,25.91l42.66,31s1.68,1.18,.48,3.04l-42.48-31.67-.66,.23v3.37l-1.26-4.03-.85-.22-12.61,15.19,11.38-15.65s1.33-2.48,3.34-1.28Z"/></g></svg>