<?xml version="1.0" encoding="utf-8"?>
<!-- Generator: Adobe Illustrator 24.0.2, SVG Export Plug-In . SVG Version: 6.00 Build 0)  -->
<svg version="1.1" id="Layer_1" xmlns="http://www.w3.org/2000/svg" xmlns:xlink="http://www.w3.org/1999/xlink" x="0px" y="0px"
	 viewBox="0 0 2304 1440" style="enable-background:new 0 0 2304 1440;" xml:space="preserve">
<style type="text/css">
	.st0{fill:#FFFFFF;}
</style>
<g id="XMLID_160_">
	<g id="XMLID_52_">
		<g id="XMLID_9_">
			<g>
				<path id="XMLID_13_" d="M1023.86,42.83c136.96,0,191.88,65.52,217.17,187.48h7.62c-2.76-24.95-6.78-62.88-10.86-97.91
					c-3.55-29.15-7.1-61.13-10.65-95.24H632.3v7.16c0.45,0,0.92-0.06,1.37-0.06c38.36,0,90.25,9.24,92.4,57.57v682.33
					c0,30.57-24.88,55.44-55.44,55.44v5.69h200.43v-5.69c-27.73,0-50.47-22.74-50.47-50.47V636.32
					c0-176.27,104.48-194.75,217.49-194.75c4.25,0,30.56,0.71,81.72,0.71V338.5c-110.16,0-268.66,68.23-299.21,222.47V42.83H1023.86
					z"/>
			</g>
		</g>
		<g id="XMLID_56_">
			<g>
				<path id="XMLID_12_" d="M1658.19,351.13c-3.55-29.15-7.1-61.13-10.65-95.24H1052.7v7.16c0.45,0,0.92-0.06,1.37-0.06
					c38.36,0,90.25,9.24,92.4,57.57v682.33c0,30.57-24.88,55.44-55.44,55.44v5.69h200.43v-5.69c-27.73,0-50.47-22.74-50.47-50.47
					V855.05c0-176.27,104.48-194.75,217.49-194.75c4.25,0,30.56,0.71,81.72,0.71V557.24c-110.16,0-268.66,68.23-299.21,222.47
					V261.56h203.26c147.14,0,199.73,75.35,222.47,215.36h4.98v-4.98C1669.57,455.61,1663.89,400.16,1658.19,351.13z"/>
			</g>
		</g>
	</g>
	<g id="XMLID_57_">
		<g>
			<path id="XMLID_295_" d="M23,1394.65v-196.27h96.78v37.72H65.39v38.26h50.29v37.72H65.39v82.56H23z"/>
			<path id="XMLID_293_" d="M178.55,1394.65v-196.27h42.39v158.55h55.77v37.72H178.55z"/>
			<path id="XMLID_290_" d="M323.16,1394.65l81.65-202.9l82.17,202.9H444.8l-9.8-25.15h-59.34l-9.75,25.15H323.16z M421.87,1335.88
				l-16.65-42.63l-16.53,42.63H421.87z"/>
			<path id="XMLID_288_" d="M653.39,1198.37l-80.92,204.47l-81.45-204.47h45.11l36.49,94.53l36.21-94.53H653.39z"/>
			<path id="XMLID_285_" d="M869.75,1223.93c19.41,19.77,29.11,43.96,29.11,72.57c0,28.62-9.7,52.82-29.11,72.58
				c-19.41,19.77-44.24,29.66-74.5,29.66s-55.09-9.89-74.5-29.66c-19.41-19.77-29.11-43.96-29.11-72.58
				c0-28.61,9.7-52.8,29.11-72.57c19.41-19.78,44.24-29.66,74.5-29.66S850.35,1204.15,869.75,1223.93z M751.24,1250.04
				c-11.48,12.03-17.23,27.52-17.23,46.46c0,18.96,5.75,34.45,17.23,46.48c11.48,12.03,26.16,18.04,44.01,18.04
				s32.53-6.01,44.01-18.04c11.48-12.03,17.23-27.52,17.23-46.48c0-18.94-5.75-34.44-17.23-46.46
				c-11.48-12.03-26.16-18.04-44.01-18.04S762.72,1238.01,751.24,1250.04z"/>
			<path id="XMLID_282_" d="M1058.23,1394.65l-52.74-86.65v86.65h-42.39v-196.27h51.94c23.33,0,42.29,6.19,56.87,18.58
				c14.58,12.4,21.86,29.35,21.86,50.85c0,24.04-11,42-33.03,53.84l45.06,73H1058.23z M1015.05,1236.1h-9.55v63.42h9.55
				c11.13,0,19.96-2.83,26.53-8.48c6.55-5.65,9.83-13.39,9.83-23.23s-3.28-17.59-9.83-23.24
				C1035,1238.92,1026.17,1236.1,1015.05,1236.1z"/>
			<path id="XMLID_280_" d="M1269.82,1394.65v-196.27h96.78v37.72h-54.39v38.26h50.29v37.72h-50.29v82.56H1269.82z"/>
			<path id="XMLID_277_" d="M1593.89,1223.93c19.41,19.77,29.11,43.96,29.11,72.57c0,28.62-9.7,52.82-29.11,72.58
				c-19.41,19.77-44.24,29.66-74.5,29.66s-55.09-9.89-74.5-29.66c-19.41-19.77-29.11-43.96-29.11-72.58
				c0-28.61,9.7-52.8,29.11-72.57c19.41-19.78,44.24-29.66,74.5-29.66S1574.49,1204.15,1593.89,1223.93z M1475.38,1250.04
				c-11.48,12.03-17.23,27.52-17.23,46.46c0,18.96,5.75,34.45,17.23,46.48s26.16,18.04,44.01,18.04s32.53-6.01,44.01-18.04
				c11.48-12.03,17.23-27.52,17.23-46.48c0-18.94-5.75-34.44-17.23-46.46c-11.48-12.03-26.16-18.04-44.01-18.04
				S1486.86,1238.01,1475.38,1250.04z"/>
			<path id="XMLID_274_" d="M1858.52,1223.93c19.41,19.77,29.11,43.96,29.11,72.57c0,28.62-9.7,52.82-29.11,72.58
				c-19.41,19.77-44.24,29.66-74.5,29.66c-30.26,0-55.09-9.89-74.5-29.66s-29.11-43.96-29.11-72.58c0-28.61,9.7-52.8,29.11-72.57
				c19.41-19.78,44.24-29.66,74.5-29.66C1814.29,1194.27,1839.12,1204.15,1858.52,1223.93z M1740.01,1250.04
				c-11.48,12.03-17.23,27.52-17.23,46.46c0,18.96,5.75,34.45,17.23,46.48c11.48,12.03,26.16,18.04,44.01,18.04
				c17.86,0,32.53-6.01,44.01-18.04c11.48-12.03,17.23-27.52,17.23-46.48c0-18.94-5.75-34.44-17.23-46.46
				c-11.48-12.03-26.16-18.04-44.01-18.04C1766.17,1232,1751.49,1238.01,1740.01,1250.04z"/>
			<path id="XMLID_271_" d="M1953.23,1394.65v-196.27h41.01c29.33,0,54.34,8.88,75.02,26.65c20.68,17.77,31.03,41.6,31.03,71.48
				c0,29.9-10.3,53.72-30.88,71.48c-20.61,17.77-45.76,26.66-75.45,26.66H1953.23z M2057.93,1296.5c0-18.77-5.88-33.43-17.66-44.01
				c-11.75-10.57-26.63-16.03-44.69-16.39v120.82c18.06-0.36,32.93-5.79,44.69-16.27
				C2052.06,1330.18,2057.93,1315.46,2057.93,1296.5z"/>
			<path id="XMLID_269_" d="M2214.83,1361.02c7.48,0,13.3-1.78,17.51-5.31c4.18-3.55,6.28-8.59,6.28-15.13
				c0-5.64-2.2-10.54-6.58-14.73c-4.4-4.18-9.85-7.64-16.38-10.4c-6.5-2.76-13.65-5.79-21.43-9.08
				c-7.75-3.29-14.93-6.94-21.48-10.95c-6.58-4.01-12.03-9.84-16.41-17.49c-4.38-7.66-6.55-16.68-6.55-27.07
				c0-16.4,5.68-29.93,17.08-40.59c11.38-10.67,26.38-15.99,44.96-15.99c8.38,0,16.4,1.09,24.06,3.28
				c7.65,2.19,13.93,4.83,18.86,7.93c4.93,3.1,9.3,6.2,13.13,9.29c3.83,3.1,6.55,5.74,8.2,7.93l2.73,3.29l-27.33,25.97
				c-1.28-1.46-3.1-3.29-5.48-5.48c-2.35-2.19-7.1-5.14-14.2-8.88c-7.1-3.74-13.95-5.6-20.51-5.6c-5.83,0-10.48,1.65-13.93,4.96
				c-3.48,3.3-5.2,7.79-5.2,13.45c0,5.1,2.13,9.59,6.4,13.47c4.28,3.88,9.63,6.95,16.03,9.22c6.43,2.26,13.5,5.21,21.28,8.83
				c7.75,3.61,14.98,7.45,21.68,11.53c6.7,4.08,12.28,10.05,16.76,17.93c4.45,7.89,6.7,17.14,6.7,27.77
				c0,18.04-6.08,32.48-18.18,43.33c-12.13,10.84-28.13,16.27-47.99,16.27c-9.28,0-18.18-1.14-26.66-3.41
				c-8.45-2.28-15.53-5.06-21.18-8.34c-5.65-3.29-10.6-6.6-14.9-9.98c-4.28-3.38-7.43-6.24-9.43-8.62l-2.73-3.28l28.98-28.98
				c0.55,0.74,1.23,1.65,2.05,2.74c0.83,1.09,2.73,3.05,5.73,5.88c3.03,2.83,6.2,5.33,9.58,7.51s7.65,4.2,12.85,6.01
				C2204.3,1360.11,2209.55,1361.02,2214.83,1361.02z"/>
		</g>
	</g>
</g>
</svg>
