<?xml version="1.0" encoding="utf-8"?>
<!-- Generator: Adobe Illustrator 27.0.1, SVG Export Plug-In . SVG Version: 6.00 Build 0)  -->
<svg version="1.1" id="Layer_1" xmlns="http://www.w3.org/2000/svg" xmlns:xlink="http://www.w3.org/1999/xlink" x="0px" y="0px"
	 viewBox="0 0 595.3 436.2" style="enable-background:new 0 0 595.3 436.2;" xml:space="preserve">
<style type="text/css">
	.st0{fill:#225534;}
	.st1{fill:#6AA842;}
	.st2{fill:url(#SVGID_1_);}
	.st3{fill:#FFFFFF;}
</style>
<g>
	<g>
		
			<ellipse transform="matrix(0.9731 -0.2302 0.2302 0.9731 -45.1473 71.2526)" class="st0" cx="282.8" cy="229.1" rx="271" ry="183.7"/>
		
			<ellipse transform="matrix(0.9731 -0.2302 0.2302 0.9731 -38.1525 74.4014)" class="st1" cx="299.8" cy="200.7" rx="271" ry="183.7"/>
		
			<linearGradient id="SVGID_1_" gradientUnits="userSpaceOnUse" x1="74.839" y1="111.6558" x2="486.756" y2="317.6143" gradientTransform="matrix(1 0 0 -1 0 435.8898)">
			<stop  offset="0.1291" style="stop-color:#386539"/>
			<stop  offset="0.5103" style="stop-color:#4D8C3F"/>
			<stop  offset="0.5389" style="stop-color:#4B883F"/>
			<stop  offset="0.7318" style="stop-color:#3D6E3B"/>
			<stop  offset="0.8375" style="stop-color:#386539"/>
		</linearGradient>
		<path class="st2" d="M530.2,146.9c25.6,87-63.2,189.6-198.2,229.3s-265.2,1.4-290.8-85.5s63.2-189.6,198.2-229.3
			S504.7,60,530.2,146.9z"/>
		<path class="st3" d="M163,153.8c-26.8,9.8-52.5,20.1-72.3,29.1c-4.2-3.9-6-9.7-1.9-16.1c25.1-13,145.1-60,194.1-76.2
			c5.4,2.3,13.7,21.2,11,34.7c-13.4,0.4-31.3,13.8-47.8,30.7l-3-2.8c4.4-11.7,9.6-19.7,15.5-26c-20.6,3.4-45.6,10.2-71,18.3
			c-41.4,70.4-55,205.3-46.3,233.2c-4.2,7.4-15.6,9.1-19.1,5.5C113,350.9,137.2,224.2,163,153.8z"/>
		<path class="st3" d="M224.9,186.3c9-2.8,14.2,0.2,17,6.5c1.7-4.8,3.4-9.3,5.4-14.4l11.3,6.2c-14.4,38.7-24.8,77.2-13.1,84.2
			c9.6,5.4,23.7-13.5,31.8-36.5c3.9-2.3,6.9,0,7.7,5.6c-12,35.6-37.7,64.8-48.7,62.7c-5.4-1-10.2-10.8-10.8-28.3
			c-13.6,28.1-38.1,58.4-49.1,49.1C146.1,296,194.8,195.7,224.9,186.3z M230.1,232c0.9-3.9,2-7.8,3-11.9c3.3-13.9,1.8-23.8-6-21.4
			c-22,6.9-55.6,89.8-36.7,97.2C199,299.2,217.7,266.3,230.1,232z"/>
	</g>
	<path class="st3" d="M374.8,202.3c7.7-22.9,8.5-36.2-0.8-24.5c-2.5,2.9-4.2,5.7-5.8,8.6c-1.5,2.4-3,5-4.8,7.2
		c-19.5,34.4-34.9,77-37.6,85.4c-4.8-0.2-10.9-4.9-13.8-8.2c5.7-21.9,13.7-52.9,18.9-75.2c0.8-6,0.6-6.1-5.8,0.1
		c-20,25.7-29,57.4-32.1,66.6c-3.2,9.6-6.2,19.1-10,27.4c-5.3,2.3-12.9-5.7-14.6-11.1c1.7-13.8,6.6-37.6,11.9-63.3
		c3.2-14.7,6.3-30.1,9.2-44.5c1.7-3.5,18.8-5.9,19.9,0.6c-10.3,25.4-17.9,49.5-22.4,71.4c13.6-28.8,30.4-61.6,40.8-74.6
		c20.9-26.4,30.1-16.8,17.8,25.9c-3.2,10.7-4.7,17.3-5.6,21.2c0.6-1,1.2-2.3,2-3.4c6.8-15,24.2-46.4,26.2-49.6
		c19.6-32.1,39-27,26,17.7c-11.9,41.5-15.4,55.9-7,57.8c4-1.4,83.1-89,91.8-110.3c3.7-2.2,6.7-0.2,7.9,5.6
		c-12.2,35.7-106,140-109.2,131.6C357.8,259.6,367.3,225.2,374.8,202.3z"/>
	<path class="st3" d="M450.4,230.3c-8.8-3.2-29.2-7-38.3-5.8c-2.6,4.6,23.3-39.1,33.4-50.3c8.9-10,16.4-18.6,21.3-25.5
		c4-5.3,5.9-9.2,6.7-12.9c-11.7,6-36.5,20.6-48.6,17.6c-14.7-2.1-17.5-10.4-20.8-15.9c-0.7-9.5,7.8-16.2,14.1-19.4
		c2.5,0.7,7.6,9,7.6,18.1c10.6,7.3,36.6-6.7,47.9-11.9c-0.1-0.4-0.2-0.8-0.2-1.2c-0.8-4.2-1.7-9,0.7-14.2c4.4-3.3,19.1,4,20.6,10.5
		c-1.9,6.3-11.6,26.2-24.4,41.8c-12.1,13.3-26,29.7-38.5,47.5c7.3-0.4,13.8,0.1,20,0.7c10.5,0.9,20.3,1.9,33-2.1
		c3.6-0.3,18.8-19.4,27.4-48.5c3.7-2.2,6.6-0.2,7.9,5.6c-9.5,34.6-29.8,65.1-44.1,69.5C468.2,236.6,459.5,233.4,450.4,230.3z"/>
</g>
</svg>
